<svg width="22" height="22">
	<!-- social-icons -->
	<symbol xmlns="http://www.w3.org/2000/svg" viewBox="0 0 18 17" id="github">
		<path d="M8.63635 0C3.88976 0 0 3.81066 0 8.42074C0 13.0041 3.85431 16.776 8.63635 16.776C13.4125 16.776 17.2727 13.0097 17.2727 8.42074C17.2727 3.81066 13.3829 0 8.63635 0ZM10.1545 15.6455C9.66872 15.7438 9.15254 15.793 8.63635 15.793C8.12017 15.793 7.60399 15.7438 7.11824 15.6455V13.3454C7.11824 12.7949 7.27005 12.5984 7.47247 12.3329C7.57552 12.2185 7.63772 12.1158 8.09988 11.4385L7.32066 11.3205C5.31668 11.0355 4.52731 10.0229 4.21354 9.23656C3.80871 8.18486 4.02128 6.86758 4.75002 6.03219C4.86137 5.90433 4.95243 5.68802 4.87152 5.46199C4.71958 5.0098 4.73987 4.29229 4.84108 4.01698C5.37769 4.09147 5.92945 4.46482 6.38963 4.73462C6.60167 4.8548 6.71289 4.82306 6.81462 4.83292C7.1844 4.75817 7.7612 4.57732 8.6465 4.57732C9.19299 4.57732 9.76993 4.65591 10.3367 4.81321C10.4381 4.8109 10.6009 4.89461 10.8832 4.73462C11.3642 4.44997 11.8973 4.08942 12.4316 4.01698C12.5328 4.29229 12.5531 5.0098 12.4013 5.46199C12.3203 5.68802 12.4113 5.90433 12.5228 6.03219C13.2514 6.86771 13.464 8.18486 13.0592 9.23656C12.7454 10.0229 11.956 11.0355 9.95205 11.3205L9.17283 11.4385C9.65053 12.1386 9.70087 12.2226 9.80037 12.3329C10.0027 12.5984 10.1545 12.7949 10.1545 13.3454V15.6455ZM11.1665 15.3605V13.3454C11.1665 12.7851 11.045 12.4116 10.8831 12.1363C12.4215 11.7334 13.5146 10.8486 14.0003 9.58059C14.5165 8.24386 14.2838 6.65141 13.4234 5.55043C13.5753 4.89192 13.5753 3.8401 13.211 3.34861C13.049 3.13244 12.8263 3.01443 12.543 3.01443C12.5328 3.01443 12.5328 3.01443 12.5328 3.01443C11.7481 3.05564 11.1304 3.43949 10.4682 3.83024C9.86099 3.67294 9.2436 3.59435 8.62621 3.59435C7.9988 3.59435 7.37126 3.6828 6.81475 3.83024C6.11764 3.42195 5.50591 3.05462 4.69942 3.01443C4.4464 3.01443 4.22369 3.13244 4.06173 3.34861C3.69749 3.8401 3.69749 4.89192 3.8493 5.55043C2.98891 6.65141 2.75618 8.25359 3.27237 9.58059C3.75811 10.8486 4.85123 11.7334 6.38963 12.1363C6.26404 12.3497 6.16468 12.625 6.12554 12.9976C5.81481 13.1016 5.54531 13.1355 5.29467 13.064C5.03032 12.9881 4.82434 12.8167 4.64539 12.5244C4.24346 11.8686 3.55886 11.3332 2.77938 11.4028L2.86833 12.3819C3.22928 12.3498 3.58851 12.7207 3.77511 13.0265C4.08295 13.53 4.49766 13.8602 5.00805 14.0066C5.38691 14.115 5.73323 14.1125 6.10617 14.0352V15.3605C3.16101 14.3578 1.01207 11.6252 1.01207 8.42074C1.01207 4.35129 4.4464 0.982966 8.63635 0.982966C12.8263 0.982966 16.2606 4.35129 16.2606 8.42074C16.2606 11.6252 14.1117 14.3578 11.1665 15.3605Z">
		</path>
	</symbol>
	<symbol xmlns="http://www.w3.org/2000/svg" viewBox="0 0 50 50" id="telegram">
		<path d="M 44.376953 5.9863281 C 43.889905 6.0076957 43.415817 6.1432497 42.988281 6.3144531 C 42.565113 6.4845113 40.128883 7.5243408 36.53125 9.0625 C 32.933617 10.600659 28.256963 12.603668 23.621094 14.589844 C 14.349356 18.562196 5.2382813 22.470703 5.2382812 22.470703 L 5.3046875 22.445312 C 5.3046875 22.445312 4.7547875 22.629122 4.1972656 23.017578 C 3.9185047 23.211806 3.6186028 23.462555 3.3730469 23.828125 C 3.127491 24.193695 2.9479735 24.711788 3.015625 25.259766 C 3.2532479 27.184511 5.2480469 27.730469 5.2480469 27.730469 L 5.2558594 27.734375 L 14.158203 30.78125 C 14.385177 31.538434 16.858319 39.792923 17.402344 41.541016 C 17.702797 42.507484 17.984013 43.064995 18.277344 43.445312 C 18.424133 43.635633 18.577962 43.782915 18.748047 43.890625 C 18.815627 43.933415 18.8867 43.965525 18.957031 43.994141 C 18.958531 43.994806 18.959437 43.99348 18.960938 43.994141 C 18.969579 43.997952 18.977708 43.998295 18.986328 44.001953 L 18.962891 43.996094 C 18.979231 44.002694 18.995359 44.013801 19.011719 44.019531 C 19.043456 44.030655 19.062905 44.030268 19.103516 44.039062 C 20.123059 44.395042 20.966797 43.734375 20.966797 43.734375 L 21.001953 43.707031 L 26.470703 38.634766 L 35.345703 45.554688 L 35.457031 45.605469 C 37.010484 46.295216 38.415349 45.910403 39.193359 45.277344 C 39.97137 44.644284 40.277344 43.828125 40.277344 43.828125 L 40.310547 43.742188 L 46.832031 9.7519531 C 46.998903 8.9915162 47.022612 8.334202 46.865234 7.7402344 C 46.707857 7.1462668 46.325492 6.6299361 45.845703 6.34375 C 45.365914 6.0575639 44.864001 5.9649605 44.376953 5.9863281 z M 44.429688 8.0195312 C 44.627491 8.0103707 44.774102 8.032983 44.820312 8.0605469 C 44.866523 8.0881109 44.887272 8.0844829 44.931641 8.2519531 C 44.976011 8.419423 45.000036 8.7721605 44.878906 9.3242188 L 44.875 9.3359375 L 38.390625 43.128906 C 38.375275 43.162926 38.240151 43.475531 37.931641 43.726562 C 37.616914 43.982653 37.266874 44.182554 36.337891 43.792969 L 26.632812 36.224609 L 26.359375 36.009766 L 26.353516 36.015625 L 23.451172 33.837891 L 39.761719 14.648438 A 1.0001 1.0001 0 0 0 38.974609 13 A 1.0001 1.0001 0 0 0 38.445312 13.167969 L 14.84375 28.902344 L 5.9277344 25.849609 C 5.9277344 25.849609 5.0423771 25.356927 5 25.013672 C 4.99765 24.994652 4.9871961 25.011869 5.0332031 24.943359 C 5.0792101 24.874869 5.1948546 24.759225 5.3398438 24.658203 C 5.6298218 24.456159 5.9609375 24.333984 5.9609375 24.333984 L 5.9941406 24.322266 L 6.0273438 24.308594 C 6.0273438 24.308594 15.138894 20.399882 24.410156 16.427734 C 29.045787 14.44166 33.721617 12.440122 37.318359 10.902344 C 40.914175 9.3649615 43.512419 8.2583658 43.732422 8.1699219 C 43.982886 8.0696253 44.231884 8.0286918 44.429688 8.0195312 z M 33.613281 18.792969 L 21.244141 33.345703 L 21.238281 33.351562 A 1.0001 1.0001 0 0 0 21.183594 33.423828 A 1.0001 1.0001 0 0 0 21.128906 33.507812 A 1.0001 1.0001 0 0 0 20.998047 33.892578 A 1.0001 1.0001 0 0 0 20.998047 33.900391 L 19.386719 41.146484 C 19.35993 41.068197 19.341173 41.039555 19.3125 40.947266 L 19.3125 40.945312 C 18.800713 39.30085 16.467362 31.5161 16.144531 30.439453 L 33.613281 18.792969 z M 22.640625 35.730469 L 24.863281 37.398438 L 21.597656 40.425781 L 22.640625 35.730469 z">
		</path>
	</symbol>
	<symbol xmlns="http://www.w3.org/2000/svg" viewBox="0 0 50 50" id="linkedin">
		<path d="M 9 4 C 6.2504839 4 4 6.2504839 4 9 L 4 41 C 4 43.749516 6.2504839 46 9 46 L 41 46 C 43.749516 46 46 43.749516 46 41 L 46 9 C 46 6.2504839 43.749516 4 41 4 L 9 4 z M 9 6 L 41 6 C 42.668484 6 44 7.3315161 44 9 L 44 41 C 44 42.668484 42.668484 44 41 44 L 9 44 C 7.3315161 44 6 42.668484 6 41 L 6 9 C 6 7.3315161 7.3315161 6 9 6 z M 14 11.011719 C 12.904779 11.011719 11.919219 11.339079 11.189453 11.953125 C 10.459687 12.567171 10.011719 13.484511 10.011719 14.466797 C 10.011719 16.333977 11.631285 17.789609 13.691406 17.933594 A 0.98809878 0.98809878 0 0 0 13.695312 17.935547 A 0.98809878 0.98809878 0 0 0 14 17.988281 C 16.27301 17.988281 17.988281 16.396083 17.988281 14.466797 A 0.98809878 0.98809878 0 0 0 17.986328 14.414062 C 17.884577 12.513831 16.190443 11.011719 14 11.011719 z M 14 12.988281 C 15.392231 12.988281 15.94197 13.610038 16.001953 14.492188 C 15.989803 15.348434 15.460091 16.011719 14 16.011719 C 12.614594 16.011719 11.988281 15.302225 11.988281 14.466797 C 11.988281 14.049083 12.140703 13.734298 12.460938 13.464844 C 12.78117 13.19539 13.295221 12.988281 14 12.988281 z M 11 19 A 1.0001 1.0001 0 0 0 10 20 L 10 39 A 1.0001 1.0001 0 0 0 11 40 L 17 40 A 1.0001 1.0001 0 0 0 18 39 L 18 33.134766 L 18 20 A 1.0001 1.0001 0 0 0 17 19 L 11 19 z M 20 19 A 1.0001 1.0001 0 0 0 19 20 L 19 39 A 1.0001 1.0001 0 0 0 20 40 L 26 40 A 1.0001 1.0001 0 0 0 27 39 L 27 29 C 27 28.170333 27.226394 27.345035 27.625 26.804688 C 28.023606 26.264339 28.526466 25.940057 29.482422 25.957031 C 30.468166 25.973981 30.989999 26.311669 31.384766 26.841797 C 31.779532 27.371924 32 28.166667 32 29 L 32 39 A 1.0001 1.0001 0 0 0 33 40 L 39 40 A 1.0001 1.0001 0 0 0 40 39 L 40 28.261719 C 40 25.300181 39.122788 22.95433 37.619141 21.367188 C 36.115493 19.780044 34.024172 19 31.8125 19 C 29.710483 19 28.110853 19.704889 27 20.423828 L 27 20 A 1.0001 1.0001 0 0 0 26 19 L 20 19 z M 12 21 L 16 21 L 16 33.134766 L 16 38 L 12 38 L 12 21 z M 21 21 L 25 21 L 25 22.560547 A 1.0001 1.0001 0 0 0 26.798828 23.162109 C 26.798828 23.162109 28.369194 21 31.8125 21 C 33.565828 21 35.069366 21.582581 36.167969 22.742188 C 37.266572 23.901794 38 25.688257 38 28.261719 L 38 38 L 34 38 L 34 29 C 34 27.833333 33.720468 26.627107 32.990234 25.646484 C 32.260001 24.665862 31.031834 23.983076 29.517578 23.957031 C 27.995534 23.930001 26.747519 24.626988 26.015625 25.619141 C 25.283731 26.611293 25 27.829667 25 29 L 25 38 L 21 38 L 21 21 z">
		</path>
	</symbol>
	<!-- /social-icons -->
	<!-- features-icons -->
	<symbol xmlns="http://www.w3.org/2000/svg" viewBox="0 0 50 50" id="offer-img">
		<path d="M49.904 11.852a2.499 2.499 0 00-1.167-1.516 2.5 2.5 0 00-3.416.916l-.417.725a.833.833 0 00-1.133.3l-2.116 3.607-.725-.416a.834.834 0 00-1.142.308.834.834 0 00.309 1.133l.725.417-7.082 12.273-1.75 4.674-.833 1.558a2.5 2.5 0 00.133 2.7l-1.875 2.3-.524-1.317a1.666 1.666 0 00-2.975-.233l-.3.508-.283-3.333a1.667 1.667 0 00-3.241-.392l-2.05 6.15a.833.833 0 00.525 1.05.72.72 0 00.258.066.833.833 0 00.792-.567l2.041-6.148.292 3.382a1.666 1.666 0 003.09.717l.31-.509.516 1.309a1.666 1.666 0 002.85.424l1.94-2.457c.215.056.437.084.659.083a2.5 2.5 0 002.174-1.233l.834-1.392 3.174-3.857 7.157-12.423.725.416a.833.833 0 01.309 1.142l-3.333 5.774a.832.832 0 00.266 1.175.832.832 0 001.142-.308l3.333-5.775a2.498 2.498 0 00-.917-3.416l-.725-.416 2.083-3.608a.833.833 0 00-.3-1.133l.417-.725a2.5 2.5 0 00.25-1.933zm-3.142.233a.833.833 0 01.509-.391.875.875 0 01.633.083c.193.11.334.293.392.508a.875.875 0 01-.084.633l-.416.725-1.45-.833.416-.725zM35.406 35.348l-.417-.242-1.233-.716 1.183-3.166 2.625 1.516-2.158 2.608zm-2.5 2.408a.833.833 0 01-.25-1.092l.417-.724 1.45.833-.417.716a.833.833 0 01-1.2.267zm5.608-6.382l-2.883-1.667 6.666-11.548 2.882 1.666-6.665 11.549zm7.499-12.99l-2.883-1.666 1.666-2.883L47.68 15.5l-1.666 2.883zm-32.865 18.96l-2.95 2.941-1.766-1.766a.833.833 0 10-1.175 1.183l1.767 1.766c.312.31.734.484 1.175.483.442.003.868-.17 1.183-.483l2.94-2.95a.833.833 0 00-1.174-1.174z" fill="#FFBB01">
		</path>
		<path d="M3.333 39.585a7.082 7.082 0 1014.164 0 .833.833 0 00-1.666 0 5.416 5.416 0 11-2.167-4.332.833.833 0 101-1.334 7.083 7.083 0 00-11.331 5.666zM29.995 6.674a.833.833 0 100-1.667H8.332a.833.833 0 00-.833.834v3.332c0 .46.373.834.833.834h21.663a.833.833 0 100-1.667H9.165V6.674h20.83zm-19.163 4.999a.833.833 0 000 1.666h16.663a.833.833 0 100-1.666H10.831zm21.663 5.832h-18.33a.833.833 0 000 1.667h18.33a.833.833 0 100-1.667zm-8.332 5.833a.833.833 0 00-.834-.834H6.666a.833.833 0 000 1.667h16.663c.46 0 .834-.373.834-.833zm8.331-.833h-5.832a.833.833 0 000 1.666h5.832a.833.833 0 100-1.666zm-17.497 5.832a.833.833 0 100-1.666H6.666a.833.833 0 100 1.666h8.331zm3.333 0h5.833a.833.833 0 100-1.666H18.33a.833.833 0 000 1.666z" fill="#FFBB01">
		</path>
		<path d="M37.494 38.335a.833.833 0 00-.834.833V47.5c0 .46-.373.834-.833.834H2.5a.833.833 0 01-.834-.834V2.508c0-.46.373-.833.834-.833h33.327c.46 0 .833.373.833.833v15.648a.833.833 0 001.667 0V2.508a2.5 2.5 0 00-2.5-2.5H2.5a2.5 2.5 0 00-2.5 2.5V47.5A2.5 2.5 0 002.5 50h33.327a2.5 2.5 0 002.5-2.5v-8.332a.833.833 0 00-.833-.833z" fill="#FFBB01">
		</path>
	</symbol>
	<symbol xmlns="http://www.w3.org/2000/svg" viewBox="0 0 50 50" id="deadline-img">
		<path d="M42.11 36.703l-2.949 2.95-1.767-1.775a.836.836 0 10-1.182 1.183l2.357 2.358a.833.833 0 001.184 0l3.574-3.541a.833.833 0 10-1.175-1.175h-.041z" fill="#FFBB01">
		</path>
		<path d="M43.327 30.912V28.33a.833.833 0 00-.833-.833h-2.5v-.833a2.5 2.5 0 012.5-2.5.833.833 0 000-1.666 4.166 4.166 0 00-4.166 4.166v.833h-2.5a.833.833 0 00-.833.833v2.583a9.999 9.999 0 108.332 0zm-3.333 17.414v-.833a.833.833 0 00-1.666 0v.833a8.332 8.332 0 01-7.5-7.499h.834a.833.833 0 000-1.666h-.833a8.332 8.332 0 015.258-6.924.834.834 0 00.533-.775v-2.3h5v2.3c0 .344.212.651.532.775a8.332 8.332 0 015.341 6.924h-.833a.833.833 0 000 1.666h.833a8.332 8.332 0 01-7.499 7.5z" fill="#FFBB01">
		</path>
		<path d="M26.838 43.327H4.166a2.5 2.5 0 01-2.5-2.5V14.165h43.327v15.38a.833.833 0 001.667 0V8.333c0-2.3-1.865-4.166-4.166-4.166h-1.667v-.833a.833.833 0 00-1.666 0v3.333a1.667 1.667 0 01-3.333 0V3.333c0-.92.746-1.667 1.667-1.667a.833.833 0 000-1.666 3.333 3.333 0 00-3.333 3.333v.833h-7.5v-.833a.833.833 0 00-1.666 0v3.333a1.667 1.667 0 01-3.332 0V3.333c0-.92.746-1.667 1.666-1.667a.833.833 0 100-1.666 3.333 3.333 0 00-3.333 3.333v.833h-7.499v-.833a.833.833 0 00-1.666 0v3.333a1.667 1.667 0 01-3.333 0V3.333c0-.92.746-1.667 1.666-1.667a.833.833 0 000-1.666 3.333 3.333 0 00-3.333 3.333v.833H4.166A4.166 4.166 0 000 8.332v32.495a4.166 4.166 0 004.166 4.166H23.33c4.374 0 4.374 0 4.374-.833a.834.834 0 00-.241-.591.832.832 0 00-.625-.242zM4.166 5.832h1.666v.834a3.333 3.333 0 006.666 0v-.834h7.5v.834a3.333 3.333 0 006.665 0v-.834h7.499v.834a3.333 3.333 0 006.665 0v-.834h1.667a2.5 2.5 0 012.5 2.5v4.166H1.665V8.332a2.5 2.5 0 012.5-2.5z" fill="#FFBB01">
		</path>
		<path d="M14.998 17.497a.833.833 0 00-.833-.833H7.499a.833.833 0 00-.833.833v6.666c0 .46.373.833.833.833h6.666c.46 0 .833-.373.833-.833v-6.666zm-1.666 5.833h-5v-5h5v5zm.833 6.666a.833.833 0 000-1.667H7.499a.833.833 0 00-.833.833v6.666c0 .46.373.833.833.833h6.666c.46 0 .833-.373.833-.833v-3.333a.833.833 0 00-1.666 0v2.5h-5v-5h5.833zm4.999-1.666a.833.833 0 00-.833.832v6.666c0 .46.373.833.833.833h6.666c.46 0 .833-.373.833-.833v-6.666a.833.833 0 00-.833-.833h-6.666zm5.832 6.665h-4.999v-5h5v5zM37.495 23.33c.46 0 .833-.373.833-.833v-5a.833.833 0 00-.833-.833h-6.666a.833.833 0 00-.833.833v6.666a.833.833 0 001.666 0v-5.832h5v4.166c0 .46.373.833.833.833zm-11.074-6.424a.833.833 0 00-1.183 0l-2.741 2.75-2.741-2.75a.837.837 0 00-1.183 1.183l2.749 2.741-2.75 2.742a.832.832 0 000 1.183.832.832 0 001.184 0l2.74-2.75 2.742 2.75a.832.832 0 001.183 0 .832.832 0 000-1.183l-2.75-2.742 2.75-2.741a.832.832 0 000-1.183z" fill="#FFBB01">
		</path>
	</symbol>
	<symbol xmlns="http://www.w3.org/2000/svg" viewBox="0 0 50 50" id="steps-img">
		<path d="M48.328 35.635v-2.3h.833a.83.83 0 00.608-.258.883.883 0 00.225-.575l-1.491-28.33a4.35 4.35 0 00-8.683 0l-1.491 28.33a.885.885 0 00.225.617c.165.15.384.229.608.216h.833v2.3l-1.575 3.158a.833.833 0 000 .75l5 9.999c.04.092.1.174.175.241.097.09.214.156.342.192h.458a.833.833 0 00.341-.192.714.714 0 00.175-.241l5-9.999a.833.833 0 000-.75l-1.583-3.158zm-8.291-3.966l.35-6.666h7.549l.392 6.666h-8.291zm1.45-27.455a2.675 2.675 0 115.35 0l1.007 19.164H40.48l.091-1.666h4.641a.833.833 0 100-1.667h-4.557l.833-15.831zm5.174 29.121v1.667h-5v-1.667h5zm-1.666 12.299v-5.633h.833a.833.833 0 000-1.666h-3.333a.833.833 0 000 1.666h.833v5.633l-3.233-6.466 1.25-2.5h5.633l1.25 2.5-3.233 6.466zM28.33 10.838a.833.833 0 000-1.667H6.666a.833.833 0 00-.833.834v3.333c0 .46.373.833.833.833H28.33a.833.833 0 000-1.667H7.5v-1.666h20.83zm.833 7.499a.833.833 0 00-.833-.833H10a.833.833 0 000 1.666h18.33c.46 0 .833-.373.833-.833zM5 22.503c0 .46.373.833.833.833h13.332a.833.833 0 000-1.666H5.832a.833.833 0 00-.834.833zm19.164-.833a.833.833 0 000 1.666h3.333a.833.833 0 000-1.666h-3.333zm-7.499 5a.833.833 0 00-.833-.834h-10a.833.833 0 100 1.667h10c.46 0 .833-.374.833-.834zm-.833 4.166a.833.833 0 00-.834-.834H5.833a.833.833 0 000 1.667h9.165c.46 0 .834-.373.834-.833zm-9.999 3.333a.833.833 0 100 1.666h5.832a.833.833 0 000-1.666H5.833z" fill="#FFBB01">
		</path>
		<path d="M32.496.006H2.5a2.5 2.5 0 00-2.5 2.5v38.328a2.5 2.5 0 002.5 2.5h14.165a.833.833 0 100-1.666H2.5a.833.833 0 01-.834-.834V7.504H33.33v33.33c0 .46-.374.834-.834.834h-2.5a.833.833 0 000 1.666h2.5a2.5 2.5 0 002.5-2.5V2.505a2.5 2.5 0 00-2.5-2.5zM1.666 5.838V2.505c0-.46.374-.833.834-.833h29.996c.46 0 .834.373.834.833v3.333H1.666z" fill="#FFBB01">
		</path>
		<path d="M23.33 30.835a2.5 2.5 0 100 5 2.5 2.5 0 000-5zm0 3.333a.833.833 0 110-1.666.833.833 0 010 1.666z" fill="#FFBB01">
		</path>
		<path d="M29.997 33.335a2.5 2.5 0 00-1.334-2.208 2.5 2.5 0 00-3.124-3.124 2.5 2.5 0 00-4.416 0 2.5 2.5 0 00-3.125 3.124 2.499 2.499 0 000 4.416 2.5 2.5 0 00.616 2.5c.163.162.348.3.55.408v10.716a.833.833 0 00.517.766c.31.13.669.062.908-.175l2.742-2.75 2.741 2.75a.832.832 0 00.908.175.833.833 0 00.517-.766V38.459a2.37 2.37 0 00.55-.408 2.5 2.5 0 00.616-2.5 2.5 2.5 0 001.334-2.216zm-6.075 11.907a.833.833 0 00-1.183 0l-1.908 1.916v-8.415l.292-.075a2.499 2.499 0 004.416 0l.291.075v8.415l-1.908-1.916zm3.575-11.074h-.142a.834.834 0 00-.591 1.425l.1.1a.834.834 0 010 1.175.792.792 0 01-.334.209h-.125a.834.834 0 01-.716-.234l-.1-.1a.833.833 0 00-1.425.592v.166a.833.833 0 01-1.667 0v-.141a.834.834 0 00-.516-.775.833.833 0 00-.317-.059.834.834 0 00-.591.242l-.1.1a.832.832 0 01-.717.233h-.125a.784.784 0 01-.334-.208.833.833 0 010-1.175l.11-.1a.834.834 0 00-.593-1.424h-.15a.833.833 0 010-1.667h.142a.834.834 0 00.592-1.425l-.1-.1a.834.834 0 011.175-1.183l.1.108a.833.833 0 001.424-.591v-.167a.833.833 0 111.667 0v.142a.833.833 0 001.425.591l.1-.1a.834.834 0 011.183 1.175l-.108.1a.834.834 0 00.591 1.425h.142a.833.833 0 010 1.666z" fill="#FFBB01">
		</path>
	</symbol>
	<symbol xmlns="http://www.w3.org/2000/svg" viewBox="0 0 50 50" id="storage-img">
		<path d="M49.167 24.167H30.108a.833.833 0 000 1.666h18.225v8.334h-4.166v-5.834a.833.833 0 00-1.667 0v5.834H20v-8.334h5a.833.833 0 000-1.666h-5.833a.833.833 0 00-.834.833v10c0 .46.373.833.834.833h7.5V37.5h-7.5a.833.833 0 00-.834.833v5.834h-2.5v-.834A.833.833 0 0015 42.5h-2.5v-4.167a.833.833 0 10-1.667 0v5c0 .46.373.834.834.834h2.5v1.666H5.833v-1.666h2.5c.46 0 .834-.373.834-.834v-5a.833.833 0 10-1.667 0V42.5H5a.833.833 0 00-.833.833v.834H.833a.833.833 0 000 1.666h3.334v.834c0 .46.373.833.833.833h10c.46 0 .833-.373.833-.833v-.834h2.5v2.5c0 .46.373.834.834.834h30c.46 0 .833-.373.833-.834v-10a.833.833 0 00-.833-.833h-7.5v-1.667h7.5c.46 0 .833-.373.833-.833V25a.833.833 0 00-.833-.833zM48.333 47.5H20v-8.333h22.5V45a.833.833 0 001.667 0v-5.833h4.166V47.5zM40 37.5H28.333v-1.667H40V37.5z" fill="#FFBB01">
		</path>
		<path d="M25 27.5a2.5 2.5 0 100 5 2.5 2.5 0 000-5zm0 3.333a.833.833 0 110-1.667.833.833 0 010 1.667zm5 1.667c.46 0 .833-.373.833-.833v-3.334a.833.833 0 00-1.666 0v3.334c0 .46.373.833.833.833zm4.167-.833v-3.334a.833.833 0 00-1.667 0v3.334a.833.833 0 001.667 0zm3.333 0v-3.334a.833.833 0 00-1.667 0v3.334a.833.833 0 001.667 0zm3.333 0v-3.334a.833.833 0 00-1.666 0v3.334a.833.833 0 001.666 0zM26.666 42.5a.833.833 0 00-.833.833A.833.833 0 1125 42.5a.833.833 0 000-1.667 2.5 2.5 0 102.5 2.5.833.833 0 00-.834-.833zM30 40.833a.833.833 0 00-.833.834V45a.833.833 0 001.666 0v-3.333a.833.833 0 00-.833-.834zm3.333 0a.833.833 0 00-.833.834V45a.833.833 0 001.667 0v-3.333a.833.833 0 00-.834-.834zm3.334 0a.833.833 0 00-.834.834V45a.833.833 0 001.667 0v-3.333a.833.833 0 00-.833-.834zm3.333 0a.833.833 0 00-.834.834V45a.833.833 0 001.667 0v-3.333a.833.833 0 00-.833-.834zM6.317 29.842a.88.88 0 00.35.075.833.833 0 00.35-1.584 9.166 9.166 0 016.316-17.15.833.833 0 001.009-.5A14.083 14.083 0 0127.5 1.668a14.25 14.25 0 0113.833 11.125.833.833 0 00.684.642 7.5 7.5 0 016.316 7.4 6.49 6.49 0 01-.05.724.835.835 0 101.659.184 7.95 7.95 0 00.058-.909 9.117 9.117 0 00-7.167-8.941A15.933 15.933 0 0027.5 0a15.742 15.742 0 00-14.458 9.4 10.462 10.462 0 00-2.209-.233 10.834 10.834 0 00-4.516 20.675z" fill="#FFBB01">
		</path>
		<path d="M13.333 30.509c.07.011.14.011.209 0A10.54 10.54 0 0016.25 29.4a.833.833 0 00-.833-1.441 9.182 9.182 0 01-2.292.941.84.84 0 00.208 1.667v-.058z" fill="#FFBB01">
		</path>
		<path d="M10 35.833c.46 0 .834-.373.834-.833V21.917l1.808 2.708a.833.833 0 00.692.375.78.78 0 00.458-.142.833.833 0 00.233-1.15l-3.333-5-.042-.041a.833.833 0 00-1.3 0l-.042.041-3.333 5a.833.833 0 001.384.917l1.808-2.708V35c0 .46.373.833.833.833zm21.291-20.691a.833.833 0 00-1.15.233l-1.808 2.709v-9.75a.833.833 0 00-1.666 0v9.75l-1.809-2.709a.834.834 0 10-1.383.917l3.333 5a.834.834 0 001.384 0l3.333-5a.833.833 0 00-.234-1.15z" fill="#FFBB01">
		</path>
	</symbol>
	<symbol xmlns="http://www.w3.org/2000/svg" viewBox="0 0 50 50" id="conversation-img">
		<path d="M44.262 47.541H4.918a.82.82 0 000 1.64h39.344a.82.82 0 000-1.64zM9.016 29.508a4.099 4.099 0 014.099 4.099v3.278a.82.82 0 101.64 0v-3.278a5.738 5.738 0 00-4.1-5.5v-1.96a4.098 4.098 0 003.28-4.016v-4.205a3.279 3.279 0 002.458-3.172v-2.459a.82.82 0 00-.82-.82H6.558a4.918 4.918 0 00-4.918 4.918v3.28a3.28 3.28 0 002.46 3.171v5.263a5.738 5.738 0 00-4.1 5.5v11.475a.82.82 0 001.64 0V33.607a4.099 4.099 0 014.098-4.099h3.278zm3.28-7.377a2.46 2.46 0 01-2.46 2.46H5.738v-1.64h.82a1.64 1.64 0 001.639-1.64v-3.278h4.098v4.098zm-9.017-2.459v-3.279a3.279 3.279 0 013.278-3.278h8.197v1.64a1.64 1.64 0 01-1.64 1.638H7.378a.82.82 0 00-.82.82v4.098h-1.64a1.64 1.64 0 01-1.64-1.639zm2.459 6.558h3.278v1.639H5.738v-1.64zm40.983-2.46v-2.196A5.737 5.737 0 0050 16.394v-.82a5.737 5.737 0 00-5.738-5.738h-8.196a4.099 4.099 0 00-4.099 4.5 4.18 4.18 0 003.279 3.59v4.205a4.098 4.098 0 003.279 4.016v1.96a5.738 5.738 0 00-4.099 5.5v3.278a.82.82 0 101.64 0v-3.279a4.099 4.099 0 014.098-4.098h3.279a4.098 4.098 0 014.098 4.098v11.476a.82.82 0 001.64 0V33.606a5.738 5.738 0 00-4.099-5.5V26.09a2.459 2.459 0 001.64-2.32zm-13.114-9.59a2.46 2.46 0 01.639-1.885 2.458 2.458 0 011.82-.82h8.196a4.099 4.099 0 014.099 4.099v.82a4.099 4.099 0 01-2.664 3.836h-.066a4.014 4.014 0 01-1.188.229h-1.82a.82.82 0 01-.82-.82v-2.426a.82.82 0 00-.82-.82h-4.778a2.565 2.565 0 01-2.598-2.213zm3.278 7.951v-4.098h3.279v1.64a2.46 2.46 0 002.459 2.458h1.885c.197 0 .386 0 .574-.05v1.69a.82.82 0 01-.82.82h-4.918a2.46 2.46 0 01-2.459-2.46zm3.279 5.738v-1.64h3.279v1.64h-3.279z" fill="#FFBB01">
		</path>
		<path d="M44.262 33.607a.82.82 0 00-.82.82v7.376a2.46 2.46 0 01-2.458 2.46h-8.197v-3.28h6.557a.82.82 0 00.82-.82v-5.737a.82.82 0 00-1.64 0v4.918h-8.196a3.279 3.279 0 00-2.836 4.918h-5.803a3.278 3.278 0 00-2.837-4.918h-8.196v-4.918a.82.82 0 00-1.64 0v5.738c0 .453.367.82.82.82h6.557v3.278H8.197a2.46 2.46 0 01-2.46-2.459v-7.377a.82.82 0 00-1.639 0v7.377a4.099 4.099 0 004.099 4.099h32.787a4.099 4.099 0 004.098-4.099v-7.377a.82.82 0 00-.82-.82zm-26.23 10.655v-3.278h.82a1.64 1.64 0 010 3.278h-.82zm10.657-1.639c0-.905.734-1.64 1.639-1.64h.82v3.28h-.82a1.64 1.64 0 01-1.64-1.64zM9.016 9.836H26.23a3.279 3.279 0 003.278-3.279V2.46A2.46 2.46 0 0027.05 0H15.574a2.46 2.46 0 00-2.46 2.459v1.303l-4.68 4.672a.82.82 0 00-.172.894.82.82 0 00.754.508zm5.5-5.156a.82.82 0 00.238-.582V2.46a.82.82 0 01.82-.82h11.475a.82.82 0 01.82.82v4.098a1.64 1.64 0 01-1.64 1.64H10.993l3.524-3.517z" fill="#FFBB01">
		</path>
		<path d="M20.492 4.098h-3.279a.82.82 0 000 1.64h3.279a.82.82 0 000-1.64zm4.918 0h-1.64a.82.82 0 000 1.64h1.64a.82.82 0 000-1.64zm-5.738 13.935a2.46 2.46 0 00-2.459 2.459v8.197a2.46 2.46 0 002.46 2.459h4.532l3.852 4.623a.82.82 0 001.451-.525v-4.099a2.46 2.46 0 002.46-2.458v-8.197a2.46 2.46 0 00-2.46-2.46h-9.836zm10.656 2.459v8.197a.82.82 0 01-.82.82h-.82a.82.82 0 00-.82.819v2.656l-2.647-3.18a.82.82 0 00-.63-.296h-4.919a.82.82 0 01-.82-.82v-8.196a.82.82 0 01.82-.82h9.836a.82.82 0 01.82.82z" fill="#FFBB01">
		</path>
		<path d="M21.311 22.95h2.46a.82.82 0 000-1.639h-2.46a.82.82 0 100 1.64zm5.739 3.28h-5.74a.82.82 0 000 1.639h5.738a.82.82 0 100-1.64zm.819-3.28h-1.64a.82.82 0 000 1.64h1.64a.82.82 0 100-1.64z" fill="#FFBB01">
		</path>
	</symbol>
	<symbol xmlns="http://www.w3.org/2000/svg" fill="#FFBB01" viewBox="0 0 64 64" id="testing-img">
		<path d="M61.866 43.48l-4.264-4.264A18.868 18.868 0 0060 30c0-10.477-8.523-19-19-19-4.378 0-8.403 1.503-11.619 4H18.274A7.976 7.976 0 0021 9c0-4.411-3.589-8-8-8S5 4.589 5 9a7.985 7.985 0 002.997 6.233C3.997 16.147 1 19.727 1 24v6c0 3.164 2.112 5.842 5 6.705V59c0 2.206 1.794 4 4 4 1.2 0 2.266-.542 3-1.382.734.84 1.8 1.382 3 1.382 2.206 0 4-1.794 4-4v-1.586L28.414 49l-1-1 2.558-2.558A18.889 18.889 0 0037 48.568v5.213l2.416.603-1.281 2.136 5.347 5.347 2.134-1.282.603 2.415h7.562l.603-2.416 2.134 1.282 5.347-5.347-1.281-2.136L63 53.781v-7.562l-2.416-.603zM58 30c0 9.374-7.626 17-17 17s-17-7.626-17-17 7.626-17 17-17 17 7.626 17 17zm-3 20c0 2.757-2.243 5-5 5s-5-2.243-5-5c0-.516.102-1.013.254-1.498a18.89 18.89 0 006.768-3.056A4.98 4.98 0 0155 50zm-33-7.414l-2 2V37h.5a3.49 3.49 0 002.476-1.029 18.943 18.943 0 002.582 5.057L23 43.586zM22 30c0 .122.016.24.018.361A3.46 3.46 0 0020.5 30H20v-6.5c0-.827.673-1.5 1.5-1.5h2.29A18.867 18.867 0 0022 30zm-8.041-5.373l-.959.959-.959-.959.741-7.627h.435zM7 9c0-3.309 2.691-6 6-6s6 2.691 6 6-2.691 6-6 6-6-2.691-6-6zm3 8h.773l-.814 8.373L13 28.414l3.041-3.041L15.227 17h11.955a19.135 19.135 0 00-2.307 3H21.5c-1.93 0-3.5 1.57-3.5 3.5V30H9c-.551 0-1-.448-1-1v-7H6v6H3v-4c0-3.859 3.14-7 7-7zM3 30h3.184A2.996 2.996 0 009 32h11.5c.827 0 1.5.673 1.5 1.5s-.673 1.5-1.5 1.5H8c-2.757 0-5-2.243-5-5zm13 31c-1.103 0-2-.897-2-2V41h-2v18c0 1.103-.897 2-2 2s-2-.897-2-2V37h10v22c0 1.103-.897 2-2 2zm4-6.414v-7.172l2-2L25.586 49zm6-8L24.414 45l2.402-2.402c.497.56 1.026 1.088 1.586 1.586zm35 1.195v4.438l-1.949.486-.534.206-.466 1.139 1.296 2.159-3.138 3.138-2.158-1.295-1.22.496L52.219 61h-4.438l-.487-1.949-.203-.535-1.142-.464-2.158 1.295-3.138-3.138 1.296-2.159-.5-1.22L39 52.219v-3.326c.658.069 1.324.107 2 .107.71 0 1.408-.046 2.098-.122-.06.369-.098.742-.098 1.122 0 3.859 3.14 7 7 7s7-3.141 7-7a6.968 6.968 0 00-3.296-5.913 19.177 19.177 0 002.799-3.141l2.844 2.844-1.296 2.159.503 1.22zM63 6c0-2.757-2.243-5-5-5h-4c-2.757 0-5 2.243-5 5v5h9c2.757 0 5-2.243 5-5zM51 6c0-1.654 1.346-3 3-3h4c1.654 0 3 1.346 3 3s-1.346 3-3 3h-7z">
		</path>
		<path d="M53 5h2v2h-2zm4 0h2v2h-2zM41 45c8.271 0 15-6.729 15-15s-6.729-15-15-15-15 6.729-15 15 6.729 15 15 15zm-5-10h2v7.637a12.772 12.772 0 01-2-.64zm-2 5.937a13.052 13.052 0 01-2-1.578V29h2zm6 2.012V21h2v21.949c-.331.026-.662.051-1 .051s-.669-.025-1-.051zM44 31h2v10.997c-.641.268-1.312.476-2 .64zm6 8.359a13.052 13.052 0 01-2 1.578V27h2zM41 17c7.168 0 13 5.832 13 13 0 2.535-.74 4.895-2 6.896V25h-6v4h-2V19h-6v14h-2v-6h-6v9.896c-1.26-2.002-2-4.362-2-6.896 0-7.168 5.832-13 13-13z">
		</path>
	</symbol>
	<!-- /features-icons -->
</svg>
