<svg width="22" height="22">
	<!-- social-icons -->
	<symbol xmlns="http://www.w3.org/2000/svg" viewBox="0 0 18 17" id="github">
		<path d="M8.63635 0C3.88976 0 0 3.81066 0 8.42074C0 13.0041 3.85431 16.776 8.63635 16.776C13.4125 16.776 17.2727 13.0097 17.2727 8.42074C17.2727 3.81066 13.3829 0 8.63635 0ZM10.1545 15.6455C9.66872 15.7438 9.15254 15.793 8.63635 15.793C8.12017 15.793 7.60399 15.7438 7.11824 15.6455V13.3454C7.11824 12.7949 7.27005 12.5984 7.47247 12.3329C7.57552 12.2185 7.63772 12.1158 8.09988 11.4385L7.32066 11.3205C5.31668 11.0355 4.52731 10.0229 4.21354 9.23656C3.80871 8.18486 4.02128 6.86758 4.75002 6.03219C4.86137 5.90433 4.95243 5.68802 4.87152 5.46199C4.71958 5.0098 4.73987 4.29229 4.84108 4.01698C5.37769 4.09147 5.92945 4.46482 6.38963 4.73462C6.60167 4.8548 6.71289 4.82306 6.81462 4.83292C7.1844 4.75817 7.7612 4.57732 8.6465 4.57732C9.19299 4.57732 9.76993 4.65591 10.3367 4.81321C10.4381 4.8109 10.6009 4.89461 10.8832 4.73462C11.3642 4.44997 11.8973 4.08942 12.4316 4.01698C12.5328 4.29229 12.5531 5.0098 12.4013 5.46199C12.3203 5.68802 12.4113 5.90433 12.5228 6.03219C13.2514 6.86771 13.464 8.18486 13.0592 9.23656C12.7454 10.0229 11.956 11.0355 9.95205 11.3205L9.17283 11.4385C9.65053 12.1386 9.70087 12.2226 9.80037 12.3329C10.0027 12.5984 10.1545 12.7949 10.1545 13.3454V15.6455ZM11.1665 15.3605V13.3454C11.1665 12.7851 11.045 12.4116 10.8831 12.1363C12.4215 11.7334 13.5146 10.8486 14.0003 9.58059C14.5165 8.24386 14.2838 6.65141 13.4234 5.55043C13.5753 4.89192 13.5753 3.8401 13.211 3.34861C13.049 3.13244 12.8263 3.01443 12.543 3.01443C12.5328 3.01443 12.5328 3.01443 12.5328 3.01443C11.7481 3.05564 11.1304 3.43949 10.4682 3.83024C9.86099 3.67294 9.2436 3.59435 8.62621 3.59435C7.9988 3.59435 7.37126 3.6828 6.81475 3.83024C6.11764 3.42195 5.50591 3.05462 4.69942 3.01443C4.4464 3.01443 4.22369 3.13244 4.06173 3.34861C3.69749 3.8401 3.69749 4.89192 3.8493 5.55043C2.98891 6.65141 2.75618 8.25359 3.27237 9.58059C3.75811 10.8486 4.85123 11.7334 6.38963 12.1363C6.26404 12.3497 6.16468 12.625 6.12554 12.9976C5.81481 13.1016 5.54531 13.1355 5.29467 13.064C5.03032 12.9881 4.82434 12.8167 4.64539 12.5244C4.24346 11.8686 3.55886 11.3332 2.77938 11.4028L2.86833 12.3819C3.22928 12.3498 3.58851 12.7207 3.77511 13.0265C4.08295 13.53 4.49766 13.8602 5.00805 14.0066C5.38691 14.115 5.73323 14.1125 6.10617 14.0352V15.3605C3.16101 14.3578 1.01207 11.6252 1.01207 8.42074C1.01207 4.35129 4.4464 0.982966 8.63635 0.982966C12.8263 0.982966 16.2606 4.35129 16.2606 8.42074C16.2606 11.6252 14.1117 14.3578 11.1665 15.3605Z">
		</path>
	</symbol>
	<symbol xmlns="http://www.w3.org/2000/svg" viewBox="0 0 50 50" id="telegram">
		<path d="M 44.376953 5.9863281 C 43.889905 6.0076957 43.415817 6.1432497 42.988281 6.3144531 C 42.565113 6.4845113 40.128883 7.5243408 36.53125 9.0625 C 32.933617 10.600659 28.256963 12.603668 23.621094 14.589844 C 14.349356 18.562196 5.2382813 22.470703 5.2382812 22.470703 L 5.3046875 22.445312 C 5.3046875 22.445312 4.7547875 22.629122 4.1972656 23.017578 C 3.9185047 23.211806 3.6186028 23.462555 3.3730469 23.828125 C 3.127491 24.193695 2.9479735 24.711788 3.015625 25.259766 C 3.2532479 27.184511 5.2480469 27.730469 5.2480469 27.730469 L 5.2558594 27.734375 L 14.158203 30.78125 C 14.385177 31.538434 16.858319 39.792923 17.402344 41.541016 C 17.702797 42.507484 17.984013 43.064995 18.277344 43.445312 C 18.424133 43.635633 18.577962 43.782915 18.748047 43.890625 C 18.815627 43.933415 18.8867 43.965525 18.957031 43.994141 C 18.958531 43.994806 18.959437 43.99348 18.960938 43.994141 C 18.969579 43.997952 18.977708 43.998295 18.986328 44.001953 L 18.962891 43.996094 C 18.979231 44.002694 18.995359 44.013801 19.011719 44.019531 C 19.043456 44.030655 19.062905 44.030268 19.103516 44.039062 C 20.123059 44.395042 20.966797 43.734375 20.966797 43.734375 L 21.001953 43.707031 L 26.470703 38.634766 L 35.345703 45.554688 L 35.457031 45.605469 C 37.010484 46.295216 38.415349 45.910403 39.193359 45.277344 C 39.97137 44.644284 40.277344 43.828125 40.277344 43.828125 L 40.310547 43.742188 L 46.832031 9.7519531 C 46.998903 8.9915162 47.022612 8.334202 46.865234 7.7402344 C 46.707857 7.1462668 46.325492 6.6299361 45.845703 6.34375 C 45.365914 6.0575639 44.864001 5.9649605 44.376953 5.9863281 z M 44.429688 8.0195312 C 44.627491 8.0103707 44.774102 8.032983 44.820312 8.0605469 C 44.866523 8.0881109 44.887272 8.0844829 44.931641 8.2519531 C 44.976011 8.419423 45.000036 8.7721605 44.878906 9.3242188 L 44.875 9.3359375 L 38.390625 43.128906 C 38.375275 43.162926 38.240151 43.475531 37.931641 43.726562 C 37.616914 43.982653 37.266874 44.182554 36.337891 43.792969 L 26.632812 36.224609 L 26.359375 36.009766 L 26.353516 36.015625 L 23.451172 33.837891 L 39.761719 14.648438 A 1.0001 1.0001 0 0 0 38.974609 13 A 1.0001 1.0001 0 0 0 38.445312 13.167969 L 14.84375 28.902344 L 5.9277344 25.849609 C 5.9277344 25.849609 5.0423771 25.356927 5 25.013672 C 4.99765 24.994652 4.9871961 25.011869 5.0332031 24.943359 C 5.0792101 24.874869 5.1948546 24.759225 5.3398438 24.658203 C 5.6298218 24.456159 5.9609375 24.333984 5.9609375 24.333984 L 5.9941406 24.322266 L 6.0273438 24.308594 C 6.0273438 24.308594 15.138894 20.399882 24.410156 16.427734 C 29.045787 14.44166 33.721617 12.440122 37.318359 10.902344 C 40.914175 9.3649615 43.512419 8.2583658 43.732422 8.1699219 C 43.982886 8.0696253 44.231884 8.0286918 44.429688 8.0195312 z M 33.613281 18.792969 L 21.244141 33.345703 L 21.238281 33.351562 A 1.0001 1.0001 0 0 0 21.183594 33.423828 A 1.0001 1.0001 0 0 0 21.128906 33.507812 A 1.0001 1.0001 0 0 0 20.998047 33.892578 A 1.0001 1.0001 0 0 0 20.998047 33.900391 L 19.386719 41.146484 C 19.35993 41.068197 19.341173 41.039555 19.3125 40.947266 L 19.3125 40.945312 C 18.800713 39.30085 16.467362 31.5161 16.144531 30.439453 L 33.613281 18.792969 z M 22.640625 35.730469 L 24.863281 37.398438 L 21.597656 40.425781 L 22.640625 35.730469 z">
		</path>
	</symbol>
	<symbol xmlns="http://www.w3.org/2000/svg" viewBox="0 0 50 50" id="linkedin">
		<path d="M 9 4 C 6.2504839 4 4 6.2504839 4 9 L 4 41 C 4 43.749516 6.2504839 46 9 46 L 41 46 C 43.749516 46 46 43.749516 46 41 L 46 9 C 46 6.2504839 43.749516 4 41 4 L 9 4 z M 9 6 L 41 6 C 42.668484 6 44 7.3315161 44 9 L 44 41 C 44 42.668484 42.668484 44 41 44 L 9 44 C 7.3315161 44 6 42.668484 6 41 L 6 9 C 6 7.3315161 7.3315161 6 9 6 z M 14 11.011719 C 12.904779 11.011719 11.919219 11.339079 11.189453 11.953125 C 10.459687 12.567171 10.011719 13.484511 10.011719 14.466797 C 10.011719 16.333977 11.631285 17.789609 13.691406 17.933594 A 0.98809878 0.98809878 0 0 0 13.695312 17.935547 A 0.98809878 0.98809878 0 0 0 14 17.988281 C 16.27301 17.988281 17.988281 16.396083 17.988281 14.466797 A 0.98809878 0.98809878 0 0 0 17.986328 14.414062 C 17.884577 12.513831 16.190443 11.011719 14 11.011719 z M 14 12.988281 C 15.392231 12.988281 15.94197 13.610038 16.001953 14.492188 C 15.989803 15.348434 15.460091 16.011719 14 16.011719 C 12.614594 16.011719 11.988281 15.302225 11.988281 14.466797 C 11.988281 14.049083 12.140703 13.734298 12.460938 13.464844 C 12.78117 13.19539 13.295221 12.988281 14 12.988281 z M 11 19 A 1.0001 1.0001 0 0 0 10 20 L 10 39 A 1.0001 1.0001 0 0 0 11 40 L 17 40 A 1.0001 1.0001 0 0 0 18 39 L 18 33.134766 L 18 20 A 1.0001 1.0001 0 0 0 17 19 L 11 19 z M 20 19 A 1.0001 1.0001 0 0 0 19 20 L 19 39 A 1.0001 1.0001 0 0 0 20 40 L 26 40 A 1.0001 1.0001 0 0 0 27 39 L 27 29 C 27 28.170333 27.226394 27.345035 27.625 26.804688 C 28.023606 26.264339 28.526466 25.940057 29.482422 25.957031 C 30.468166 25.973981 30.989999 26.311669 31.384766 26.841797 C 31.779532 27.371924 32 28.166667 32 29 L 32 39 A 1.0001 1.0001 0 0 0 33 40 L 39 40 A 1.0001 1.0001 0 0 0 40 39 L 40 28.261719 C 40 25.300181 39.122788 22.95433 37.619141 21.367188 C 36.115493 19.780044 34.024172 19 31.8125 19 C 29.710483 19 28.110853 19.704889 27 20.423828 L 27 20 A 1.0001 1.0001 0 0 0 26 19 L 20 19 z M 12 21 L 16 21 L 16 33.134766 L 16 38 L 12 38 L 12 21 z M 21 21 L 25 21 L 25 22.560547 A 1.0001 1.0001 0 0 0 26.798828 23.162109 C 26.798828 23.162109 28.369194 21 31.8125 21 C 33.565828 21 35.069366 21.582581 36.167969 22.742188 C 37.266572 23.901794 38 25.688257 38 28.261719 L 38 38 L 34 38 L 34 29 C 34 27.833333 33.720468 26.627107 32.990234 25.646484 C 32.260001 24.665862 31.031834 23.983076 29.517578 23.957031 C 27.995534 23.930001 26.747519 24.626988 26.015625 25.619141 C 25.283731 26.611293 25 27.829667 25 29 L 25 38 L 21 38 L 21 21 z">
		</path>
	</symbol>

	<!--CV icon -->
	<symbol xmlns="http://www.w3.org/2000/svg" width="30" height="30" enable-background="new 0 0 70 70" viewBox="0 0 70 70" id="cv">
		<path d="M10.2849121,1.9755859c-0.5522461,0-1,0.4477539-1,1v64c0,0.5527344,0.4477539,1,1,1h35.6217651 c0.081665,0.020874,0.1627808,0.0488281,0.2454224,0.0488281c0.2597656,0,0.515625-0.1015625,0.7070312-0.2929688 l13.5516357-13.5506592c0.0194092-0.0188599,0.03125-0.0432129,0.0490723-0.0635986 c0.0593262-0.0682983,0.1103516-0.1408081,0.1485596-0.2203369c0.0198364-0.0408936,0.03125-0.0836182,0.0454102-0.1274414 c0.0231323-0.0718384,0.0378418-0.144043,0.0442505-0.2192383c0.0025635-0.0292358,0.0170288-0.0544434,0.0170288-0.0843506 V2.9755859c0-0.5522461-0.4477539-1-1-1H10.2849121z M11.2849121,3.9755859h47.4301758v48.4902344H46.1520996 c-0.5522461,0-1,0.4472656-1,1v12.5097656H11.2849121V3.9755859z M47.1520996,64.6103516V54.4658203h10.1450195 L47.1520996,64.6103516z" />
		<path d="M35.0026855 24.8217773c3.0766602 0 5.5800781-2.0698242 5.5800781-4.6142578v-4.9667969c0-2.5791016-2.609375-4.8413086-5.5839844-4.8413086-2.9707031 0-5.5761719 2.262207-5.5761719 4.8413086v4.9667969C29.4226074 22.7519531 31.9260254 24.8217773 35.0026855 24.8217773zM31.4226074 15.2407227c0-1.3413086 1.5292969-2.8413086 3.5761719-2.8413086 2.0185547 0 3.5839844 1.5273438 3.5839844 2.8413086v4.9667969c0 1.3925781-1.6728516 2.6142578-3.5800781 2.6142578s-3.5800781-1.2216797-3.5800781-2.6142578V15.2407227zM22.2355957 24.7172852h.2114258c2.4648438 0 4.4702148-1.7353516 4.4702148-3.8686523v-8.7416992c0-.5522461-.4477539-1-1-1s-1 .4477539-1 1v8.7416992c0 1.0126953-1.1313477 1.8686523-2.4702148 1.8686523h-.2114258c-.8134766 0-1.6118164-.3144531-2.0825195-.8208008-.1953125-.2094727-.4208984-.5488281-.3901367-.9760742.0395508-.5507812-.3745117-1.0292969-.9257812-1.0693359-.5571289-.043457-1.0297852.375-1.0693359.9257812-.0644531.8930664.2626953 1.7749023.9208984 2.4819336C19.5383301 24.1723633 20.8640137 24.7172852 22.2355957 24.7172852zM43.5646973 24.7172852h3.8374023c2.6674805 0 4.8378906-1.7509766 4.8378906-3.902832 0-1.1573486-.6401367-2.1872559-1.635437-2.9024658.9953003-.715332 1.635437-1.7453613 1.635437-2.90271 0-2.1518555-2.1704102-3.9023438-4.8378906-3.9023438h-3.8374023c-.5522461 0-1 .4477539-1 1v5.8051758 5.8051758C42.5646973 24.2695312 43.0124512 24.7172852 43.5646973 24.7172852zM50.2399902 20.8144531c0 1.03125-1.2998047 1.902832-2.8378906 1.902832h-2.8374023v-3.8051758h2.8374023C48.9401855 18.9121094 50.2399902 19.7832031 50.2399902 20.8144531zM44.5646973 13.1069336h2.8374023c1.5380859 0 2.8378906.8710938 2.8378906 1.9023438s-1.2998047 1.902832-2.8378906 1.902832h-2.8374023V13.1069336zM50.8747559 31.324707h-31.75c-.5522461 0-1 .4477539-1 1s.4477539 1 1 1h31.75c.5522461 0 1-.4477539 1-1S51.427002 31.324707 50.8747559 31.324707zM50.8747559 38.0283203h-31.75c-.5522461 0-1 .4472656-1 1s.4477539 1 1 1h31.75c.5522461 0 1-.4472656 1-1S51.427002 38.0283203 50.8747559 38.0283203zM50.8747559 44.7324219h-31.75c-.5522461 0-1 .4472656-1 1s.4477539 1 1 1h31.75c.5522461 0 1-.4472656 1-1S51.427002 44.7324219 50.8747559 44.7324219zM19.1247559 52.0244141c-.5522461 0-1 .4472656-1 1s.4477539 1 1 1h16.6699219c.5522461 0 1-.4472656 1-1s-.4477539-1-1-1H19.1247559zM35.7946777 57.5517578H19.1247559c-.5522461 0-1 .4472656-1 1s.4477539 1 1 1h16.6699219c.5522461 0 1-.4472656 1-1S36.3469238 57.5517578 35.7946777 57.5517578z" />
	</symbol>


	<!--relocation icon -->
	<symbol xmlns="http://www.w3.org/2000/svg" width="22" height="22" viewBox="0 0 365.2 382.2" id="home" fill="white">
		<path d="M185.6,0c3.1,2.3,6.6,4.3,9.4,7c54.8,52.8,109.6,105.7,164.3,158.6c1.1,1,2.2,2.1,3.1,3.2c3.1,4,3.7,8.4,1.7,12.9
	c-2,4.5-5.6,7.3-10.7,7.5c-6.3,0.2-12.7,0.1-19,0.1c-1.3,0-2.7,0-4.5,0c0,2,0,3.5,0,5.1c0,56.6,0,113.2,0,169.9c0,1.7,0,3.5-0.2,5.2
	c-0.7,7-5.6,11.8-12.5,11.8c-29.9,0.1-59.9,0.1-89.8,0c-7.7,0-12.7-5.7-12.7-14c0-32,0-64.1,0-96.1c0-1.5,0-3,0-4.8
	c-21.3,0-42.5,0-64,0c0,1.5,0,3,0,4.4c0,31.7,0,63.3,0,95c0,10.9-4.7,15.5-15.7,15.5c-27.9,0-55.9,0-83.8,0
	c-10.9,0-15.7-4.7-15.7-15.6c0-57,0-114,0-171c0-1.6,0-3.2,0-5.2c-1.6-0.1-2.9-0.2-4.2-0.2c-6.3,0-12.7,0.1-19-0.1
	c-5.2-0.1-8.9-2.9-11-7.6c-2.2-4.9-1.3-9.5,2.1-13.5c0.7-0.9,1.5-1.6,2.3-2.4C60.9,112.6,116,59.2,171.3,6c2.4-2.3,5.5-4,8.3-6
	C181.6,0,183.6,0,185.6,0z M227.4,368.5c30,0,59.6,0,89.6,0c0-1.8,0-3.4,0-5c0-56.6,0-113.2,0-169.9c0-1.4,0-2.7,0.1-4.1
	c0.6-7.9,5.6-12.7,13.6-12.9c6.1-0.1,12.2,0,18.3,0c0.9,0,1.8-0.2,3.2-0.4c-56.7-54.7-113-109-169.4-163.5
	C126,67.4,69.8,121.7,12.9,176.7c7.8,0,14.6,0,21.4,0c4.9,0,9.4,1.5,11.6,6c1.5,2.9,2.2,6.6,2.2,10c0.1,57.1,0.1,114.2,0.1,171.4
	c0,1.5,0.1,3.1,0.2,4.6c30,0,59.5,0,89.4,0c0-1.7,0-3.1,0-4.6c0-31.7,0-63.3,0-95c0-10.7,4.7-15.5,15.4-15.5c19.6,0,39.2,0,58.9,0
	c10.5,0,15.3,4.8,15.3,15.2c0,31.7,0,63.3,0,95C227.4,365.2,227.4,366.6,227.4,368.5z"/>
	</symbol>

	<symbol xmlns="http://www.w3.org/2000/svg" width="22" height="22"  viewBox="0 0 217.4 305" id="location" fill="white">
		<path d="M106.4,305c-5.4-1.6-8.8-5.3-11.8-9.8c-23.9-36.3-47.9-72.6-71.8-108.9C12.4,170.6,5,153.7,1.6,135.2
	c-2.9-15.6-1.6-30.9,2.7-46c6.5-22.4,19-40.8,37.3-55.3c13.5-10.7,28.8-18,45.7-21.1c37.6-6.9,70.5,2.9,98,29.5
	c17.3,16.8,27.5,37.5,31,61.5c3.8,25.4-2.2,48.9-14.7,70.6c-9.8,16.9-20.9,33-31.6,49.3c-15.6,23.9-31.5,47.6-47.1,71.5
	c-3,4.5-6.5,8.2-11.8,9.8C109.5,305,108,305,106.4,305z M108.8,292.8c1.2-1.6,2.1-2.7,2.8-3.9c13.1-19.8,26.2-39.6,39.2-59.5
	c13.2-20.1,26.5-40.1,39.2-60.5c8.1-13.1,12.9-27.6,14.2-43c2.1-25.5-5.3-48.3-21.7-67.7c-22.8-26.8-52.1-38.1-87.1-33.8
	c-15.5,1.9-29.6,7.7-42.3,16.8C36,53.5,24.1,69.6,17.5,89.6c-4.2,12.8-5.8,25.9-4,39.4c2.5,18.2,9.7,34.6,19.7,49.8
	c24.2,36.9,48.6,73.7,73,110.6C106.9,290.4,107.7,291.4,108.8,292.8z"/>
		<path d="M108.8,176.8c-31.7,0.1-57.6-25.7-57.6-57.5c0-31.7,25.9-57.7,57.6-57.6c31.6,0,57.4,25.8,57.5,57.4
	C166.4,150.9,140.6,176.7,108.8,176.8z M109.1,74.5C84.8,74,64.4,94,63.9,118.7c-0.5,24.3,19.5,44.9,44,45.3
	c24.8,0.4,45.2-19.4,45.6-44.3C153.9,95.2,133.9,74.9,109.1,74.5z"/>
	</symbol>



</svg>
