<svg width="22" height="22">
	<!-- social-icons -->
	<symbol xmlns="http://www.w3.org/2000/svg" viewBox="0 0 22 22" id="github">
		<path fill-rule="evenodd" clip-rule="evenodd" d="M11 21C16.5228 21 21 16.5228 21 11C21 5.47715 16.5228 1 11 1C5.47715 1 1 5.47715 1 11C1 16.5228 5.47715 21 11 21ZM11 22C17.0751 22 22 17.0751 22 11C22 4.92487 17.0751 0 11 0C4.92487 0 0 4.92487 0 11C0 17.0751 4.92487 22 11 22Z"/>
		<path fill-rule="evenodd" clip-rule="evenodd" d="M8.79219 20.84C8.70373 20.7254 8.70373 19.7056 8.79219 17.7811C7.84253 17.8141 7.24303 17.7481 6.99232 17.5835C6.61694 17.3365 6.24065 16.5752 5.90744 16.0385C5.57378 15.5023 4.83357 15.417 4.53473 15.2969C4.2359 15.1773 4.16074 14.6883 5.35836 15.0577C6.55598 15.4275 6.61419 16.435 6.99232 16.6701C7.37044 16.9057 8.27382 16.803 8.68311 16.6142C9.0924 16.4253 9.06215 15.7232 9.13548 15.445C9.22761 15.1851 8.90219 15.1273 8.89532 15.1255C8.49519 15.1255 6.39557 14.6685 5.81853 12.6354C5.24194 10.6018 5.9849 9.27259 6.38136 8.70105C6.64536 8.32063 6.62198 7.50846 6.31123 6.26592C7.44011 6.12155 8.31186 6.47676 8.92511 7.33201C8.92603 7.33659 9.72994 6.85396 11 6.85396C12.2705 6.85396 12.721 7.24721 13.0689 7.33201C13.4172 7.4168 13.695 5.83509 15.8432 6.26592C15.3945 7.1473 15.0191 8.24867 15.3056 8.70151C15.5925 9.15388 16.7172 10.593 16.0265 12.6354C15.5654 13.9966 14.6598 14.8267 13.3091 15.1255C13.1546 15.175 13.0771 15.2548 13.0771 15.3648C13.0771 15.5298 13.2861 15.5476 13.5877 16.3208C13.7894 16.836 13.8036 18.3082 13.6317 20.7369C13.1959 20.8478 12.8567 20.9225 12.6142 20.9605C12.1848 21.0279 11.7182 21.066 11.2599 21.0802C10.8015 21.0948 10.6425 21.0935 10.0086 21.0343C9.5992 20.9972 9.19279 20.9323 8.79219 20.84Z"/>
	</symbol>
	<symbol xmlns="http://www.w3.org/2000/svg" viewBox="0 0 22 22" id="telegram">
		<path fill-rule="evenodd" clip-rule="evenodd" d="M11 21C16.5228 21 21 16.5228 21 11C21 5.47715 16.5228 1 11 1C5.47715 1 1 5.47715 1 11C1 16.5228 5.47715 21 11 21ZM11 22C17.0751 22 22 17.0751 22 11C22 4.92487 17.0751 0 11 0C4.92487 0 0 4.92487 0 11C0 17.0751 4.92487 22 11 22Z"/>
		<path fill-rule="evenodd" clip-rule="evenodd" d="M15.6534 6.07525C15.8133 6.00862 15.9882 5.98564 16.1601 6.0087C16.3319 6.03176 16.4944 6.10003 16.6305 6.20639C16.7667 6.31275 16.8716 6.45331 16.9343 6.61346C16.997 6.7736 17.0153 6.94747 16.9871 7.11696L15.5202 15.9304C15.3779 16.7806 14.4361 17.2681 13.649 16.8446C12.9905 16.4904 12.0126 15.9445 11.1329 15.375C10.6931 15.0899 9.34577 14.177 9.51136 13.5273C9.65365 12.9719 11.9175 10.8846 13.2111 9.64369C13.7188 9.15616 13.4873 8.87491 12.8877 9.32337C11.3981 10.4368 9.00814 12.1301 8.21775 12.6067C7.52049 13.027 7.15698 13.0987 6.72233 13.027C5.92935 12.8963 5.19393 12.6938 4.59369 12.4472C3.7826 12.1141 3.82206 11.0096 4.59305 10.688L15.6534 6.07525Z"/>	
	</symbol>
	<symbol xmlns="http://www.w3.org/2000/svg" viewBox="0 0 22 22" id="linkedin">
		<path d="M7.51836 6.33393C7.5182 6.68753 7.38537 7.02658 7.14911 7.27649C6.91285 7.5264 6.59251 7.6667 6.25855 7.66652C5.9246 7.66634 5.60438 7.5257 5.36836 7.27554C5.13234 7.02539 4.99983 6.6862 5 6.33259C5.00017 5.97899 5.13299 5.63994 5.36925 5.39003C5.60551 5.14012 5.92586 4.99982 6.25981 5C6.59377 5.00018 6.91398 5.14081 7.15 5.39097C7.38603 5.64113 7.51853 5.98032 7.51836 6.33393ZM7.55614 8.6538H5.03778V17H7.55614V8.6538ZM11.5352 8.6538H9.02938V17H11.51V12.6202C11.51 10.1804 14.5131 9.95373 14.5131 12.6202V17H17V11.7136C17 7.60052 12.5551 7.75385 11.51 9.77374L11.5352 8.6538Z" />
		<path fill-rule="evenodd" clip-rule="evenodd" d="M11 21C16.5228 21 21 16.5228 21 11C21 5.47715 16.5228 1 11 1C5.47715 1 1 5.47715 1 11C1 16.5228 5.47715 21 11 21ZM11 22C17.0751 22 22 17.0751 22 11C22 4.92487 17.0751 0 11 0C4.92487 0 0 4.92487 0 11C0 17.0751 4.92487 22 11 22Z" />
	</symbol>
	<symbol xmlns="http://www.w3.org/2000/svg" viewBox="0 0 22 22" id="behance">
		<path fill-rule="evenodd" clip-rule="evenodd" d="M11 21C16.5228 21 21 16.5228 21 11C21 5.47715 16.5228 1 11 1C5.47715 1 1 5.47715 1 11C1 16.5228 5.47715 21 11 21ZM11 22C17.0751 22 22 17.0751 22 11C22 4.92487 17.0751 0 11 0C4.92487 0 0 4.92487 0 11C0 17.0751 4.92487 22 11 22Z" />
		<path d="M8.92486 11.1482C9.38126 11.0574 9.78969 10.8105 10.0769 10.4517C10.364 10.093 10.5112 9.64579 10.4919 9.19046C10.4919 7.82142 9.41454 7 7.77759 7H4V15.8987H7.77759C9.59643 15.8303 10.9955 14.913 10.9955 13.3249C11.0087 13.0483 10.9652 12.7718 10.8677 12.5118C10.7702 12.2518 10.6207 12.0134 10.4278 11.8106C10.235 11.6079 10.0027 11.4449 9.7446 11.3311C9.48652 11.2174 9.20783 11.1552 8.92486 11.1482ZM5.76287 8.25951H7.37185C8.21131 8.25951 8.701 8.69761 8.701 9.4232C8.701 10.1488 8.16934 10.6416 6.95211 10.6416H5.76287V8.25951ZM7.16198 14.516H5.76287V11.8601H7.48378C8.53311 11.8601 9.12073 12.3803 9.12073 13.2291C9.12073 14.0779 8.53311 14.516 7.10602 14.516H7.16198ZM14.8431 9.12201C14.4188 9.08743 13.992 9.14304 13.5918 9.28503C13.1915 9.42702 12.8274 9.65203 12.5244 9.94463C12.2214 10.2372 11.9867 10.5905 11.8363 10.9802C11.6859 11.3699 11.6234 11.7868 11.6531 12.2023V12.8184C11.6187 13.2458 11.6801 13.6755 11.833 14.0773C11.986 14.479 12.2268 14.8433 12.5386 15.1445C12.8504 15.4457 13.2258 15.6766 13.6383 15.8211C14.0509 15.9656 14.4907 16.0201 14.927 15.9809C15.6177 16.0612 16.3141 15.8869 16.8806 15.492C17.447 15.0972 17.8429 14.5101 17.9911 13.8452H16.2981C16.2106 14.13 16.0207 14.3741 15.7636 14.5326C15.5064 14.6912 15.1994 14.7533 14.899 14.7077C14.6851 14.7129 14.4726 14.6732 14.2757 14.5913C14.0788 14.5094 13.9021 14.3871 13.7576 14.2327C13.6131 14.0783 13.5041 13.8954 13.4379 13.6963C13.3717 13.4972 13.35 13.2866 13.374 13.0785V12.8869H17.9911V12.2434C18.024 11.8288 17.9655 11.4121 17.8196 11.0216C17.6736 10.631 17.4436 10.2757 17.1451 9.97971C16.8466 9.68372 16.4865 9.45395 16.0894 9.30597C15.6922 9.15799 15.2672 9.09525 14.8431 9.12201ZM16.2422 11.8601H13.416C13.3985 11.6702 13.4216 11.4789 13.4841 11.2983C13.5465 11.1177 13.6467 10.9518 13.7785 10.8113C13.9102 10.6709 14.0704 10.5589 14.2489 10.4825C14.4274 10.4061 14.6203 10.3671 14.8151 10.3678C15.0099 10.3671 15.2028 10.4061 15.3813 10.4825C15.5598 10.5589 15.72 10.6709 15.8517 10.8113C15.9834 10.9518 16.0837 11.1177 16.1461 11.2983C16.2086 11.4789 16.2317 11.6702 16.2142 11.8601H16.2422ZM12.7444 7.61607H16.9417V8.30058H12.7444V7.61607Z"/>
	</symbol>


	<!--CV icon -->
	<symbol xmlns="http://www.w3.org/2000/svg" width="30" height="30" enable-background="new 0 0 70 70" viewBox="0 0 70 70" id="cv">
		<path d="M10.2849121,1.9755859c-0.5522461,0-1,0.4477539-1,1v64c0,0.5527344,0.4477539,1,1,1h35.6217651 c0.081665,0.020874,0.1627808,0.0488281,0.2454224,0.0488281c0.2597656,0,0.515625-0.1015625,0.7070312-0.2929688 l13.5516357-13.5506592c0.0194092-0.0188599,0.03125-0.0432129,0.0490723-0.0635986 c0.0593262-0.0682983,0.1103516-0.1408081,0.1485596-0.2203369c0.0198364-0.0408936,0.03125-0.0836182,0.0454102-0.1274414 c0.0231323-0.0718384,0.0378418-0.144043,0.0442505-0.2192383c0.0025635-0.0292358,0.0170288-0.0544434,0.0170288-0.0843506 V2.9755859c0-0.5522461-0.4477539-1-1-1H10.2849121z M11.2849121,3.9755859h47.4301758v48.4902344H46.1520996 c-0.5522461,0-1,0.4472656-1,1v12.5097656H11.2849121V3.9755859z M47.1520996,64.6103516V54.4658203h10.1450195 L47.1520996,64.6103516z" />
		<path d="M35.0026855 24.8217773c3.0766602 0 5.5800781-2.0698242 5.5800781-4.6142578v-4.9667969c0-2.5791016-2.609375-4.8413086-5.5839844-4.8413086-2.9707031 0-5.5761719 2.262207-5.5761719 4.8413086v4.9667969C29.4226074 22.7519531 31.9260254 24.8217773 35.0026855 24.8217773zM31.4226074 15.2407227c0-1.3413086 1.5292969-2.8413086 3.5761719-2.8413086 2.0185547 0 3.5839844 1.5273438 3.5839844 2.8413086v4.9667969c0 1.3925781-1.6728516 2.6142578-3.5800781 2.6142578s-3.5800781-1.2216797-3.5800781-2.6142578V15.2407227zM22.2355957 24.7172852h.2114258c2.4648438 0 4.4702148-1.7353516 4.4702148-3.8686523v-8.7416992c0-.5522461-.4477539-1-1-1s-1 .4477539-1 1v8.7416992c0 1.0126953-1.1313477 1.8686523-2.4702148 1.8686523h-.2114258c-.8134766 0-1.6118164-.3144531-2.0825195-.8208008-.1953125-.2094727-.4208984-.5488281-.3901367-.9760742.0395508-.5507812-.3745117-1.0292969-.9257812-1.0693359-.5571289-.043457-1.0297852.375-1.0693359.9257812-.0644531.8930664.2626953 1.7749023.9208984 2.4819336C19.5383301 24.1723633 20.8640137 24.7172852 22.2355957 24.7172852zM43.5646973 24.7172852h3.8374023c2.6674805 0 4.8378906-1.7509766 4.8378906-3.902832 0-1.1573486-.6401367-2.1872559-1.635437-2.9024658.9953003-.715332 1.635437-1.7453613 1.635437-2.90271 0-2.1518555-2.1704102-3.9023438-4.8378906-3.9023438h-3.8374023c-.5522461 0-1 .4477539-1 1v5.8051758 5.8051758C42.5646973 24.2695312 43.0124512 24.7172852 43.5646973 24.7172852zM50.2399902 20.8144531c0 1.03125-1.2998047 1.902832-2.8378906 1.902832h-2.8374023v-3.8051758h2.8374023C48.9401855 18.9121094 50.2399902 19.7832031 50.2399902 20.8144531zM44.5646973 13.1069336h2.8374023c1.5380859 0 2.8378906.8710938 2.8378906 1.9023438s-1.2998047 1.902832-2.8378906 1.902832h-2.8374023V13.1069336zM50.8747559 31.324707h-31.75c-.5522461 0-1 .4477539-1 1s.4477539 1 1 1h31.75c.5522461 0 1-.4477539 1-1S51.427002 31.324707 50.8747559 31.324707zM50.8747559 38.0283203h-31.75c-.5522461 0-1 .4472656-1 1s.4477539 1 1 1h31.75c.5522461 0 1-.4472656 1-1S51.427002 38.0283203 50.8747559 38.0283203zM50.8747559 44.7324219h-31.75c-.5522461 0-1 .4472656-1 1s.4477539 1 1 1h31.75c.5522461 0 1-.4472656 1-1S51.427002 44.7324219 50.8747559 44.7324219zM19.1247559 52.0244141c-.5522461 0-1 .4472656-1 1s.4477539 1 1 1h16.6699219c.5522461 0 1-.4472656 1-1s-.4477539-1-1-1H19.1247559zM35.7946777 57.5517578H19.1247559c-.5522461 0-1 .4472656-1 1s.4477539 1 1 1h16.6699219c.5522461 0 1-.4472656 1-1S36.3469238 57.5517578 35.7946777 57.5517578z" />
	</symbol>


	<!--relocation icon -->
	<symbol xmlns="http://www.w3.org/2000/svg" width="22" height="22" viewBox="0 0 365.2 382.2" id="home" fill="white">
		<path d="M185.6,0c3.1,2.3,6.6,4.3,9.4,7c54.8,52.8,109.6,105.7,164.3,158.6c1.1,1,2.2,2.1,3.1,3.2c3.1,4,3.7,8.4,1.7,12.9
	c-2,4.5-5.6,7.3-10.7,7.5c-6.3,0.2-12.7,0.1-19,0.1c-1.3,0-2.7,0-4.5,0c0,2,0,3.5,0,5.1c0,56.6,0,113.2,0,169.9c0,1.7,0,3.5-0.2,5.2
	c-0.7,7-5.6,11.8-12.5,11.8c-29.9,0.1-59.9,0.1-89.8,0c-7.7,0-12.7-5.7-12.7-14c0-32,0-64.1,0-96.1c0-1.5,0-3,0-4.8
	c-21.3,0-42.5,0-64,0c0,1.5,0,3,0,4.4c0,31.7,0,63.3,0,95c0,10.9-4.7,15.5-15.7,15.5c-27.9,0-55.9,0-83.8,0
	c-10.9,0-15.7-4.7-15.7-15.6c0-57,0-114,0-171c0-1.6,0-3.2,0-5.2c-1.6-0.1-2.9-0.2-4.2-0.2c-6.3,0-12.7,0.1-19-0.1
	c-5.2-0.1-8.9-2.9-11-7.6c-2.2-4.9-1.3-9.5,2.1-13.5c0.7-0.9,1.5-1.6,2.3-2.4C60.9,112.6,116,59.2,171.3,6c2.4-2.3,5.5-4,8.3-6
	C181.6,0,183.6,0,185.6,0z M227.4,368.5c30,0,59.6,0,89.6,0c0-1.8,0-3.4,0-5c0-56.6,0-113.2,0-169.9c0-1.4,0-2.7,0.1-4.1
	c0.6-7.9,5.6-12.7,13.6-12.9c6.1-0.1,12.2,0,18.3,0c0.9,0,1.8-0.2,3.2-0.4c-56.7-54.7-113-109-169.4-163.5
	C126,67.4,69.8,121.7,12.9,176.7c7.8,0,14.6,0,21.4,0c4.9,0,9.4,1.5,11.6,6c1.5,2.9,2.2,6.6,2.2,10c0.1,57.1,0.1,114.2,0.1,171.4
	c0,1.5,0.1,3.1,0.2,4.6c30,0,59.5,0,89.4,0c0-1.7,0-3.1,0-4.6c0-31.7,0-63.3,0-95c0-10.7,4.7-15.5,15.4-15.5c19.6,0,39.2,0,58.9,0
	c10.5,0,15.3,4.8,15.3,15.2c0,31.7,0,63.3,0,95C227.4,365.2,227.4,366.6,227.4,368.5z"/>
	</symbol>

	<symbol xmlns="http://www.w3.org/2000/svg" width="22" height="22"  viewBox="0 0 217.4 305" id="location" fill="white">
		<path d="M106.4,305c-5.4-1.6-8.8-5.3-11.8-9.8c-23.9-36.3-47.9-72.6-71.8-108.9C12.4,170.6,5,153.7,1.6,135.2
	c-2.9-15.6-1.6-30.9,2.7-46c6.5-22.4,19-40.8,37.3-55.3c13.5-10.7,28.8-18,45.7-21.1c37.6-6.9,70.5,2.9,98,29.5
	c17.3,16.8,27.5,37.5,31,61.5c3.8,25.4-2.2,48.9-14.7,70.6c-9.8,16.9-20.9,33-31.6,49.3c-15.6,23.9-31.5,47.6-47.1,71.5
	c-3,4.5-6.5,8.2-11.8,9.8C109.5,305,108,305,106.4,305z M108.8,292.8c1.2-1.6,2.1-2.7,2.8-3.9c13.1-19.8,26.2-39.6,39.2-59.5
	c13.2-20.1,26.5-40.1,39.2-60.5c8.1-13.1,12.9-27.6,14.2-43c2.1-25.5-5.3-48.3-21.7-67.7c-22.8-26.8-52.1-38.1-87.1-33.8
	c-15.5,1.9-29.6,7.7-42.3,16.8C36,53.5,24.1,69.6,17.5,89.6c-4.2,12.8-5.8,25.9-4,39.4c2.5,18.2,9.7,34.6,19.7,49.8
	c24.2,36.9,48.6,73.7,73,110.6C106.9,290.4,107.7,291.4,108.8,292.8z"/>
		<path d="M108.8,176.8c-31.7,0.1-57.6-25.7-57.6-57.5c0-31.7,25.9-57.7,57.6-57.6c31.6,0,57.4,25.8,57.5,57.4
	C166.4,150.9,140.6,176.7,108.8,176.8z M109.1,74.5C84.8,74,64.4,94,63.9,118.7c-0.5,24.3,19.5,44.9,44,45.3
	c24.8,0.4,45.2-19.4,45.6-44.3C153.9,95.2,133.9,74.9,109.1,74.5z"/>
	</symbol>



</svg>
