<svg width="45" height="46" viewBox="0 0 45 46" fill="none" xmlns="http://www.w3.org/2000/svg">
<path d="M22.5 45.16C10.0588 45.16 0 35.1012 0 22.66C0 10.2188 10.0588 0.160004 22.5 0.160004C34.9412 0.160004 45 10.2188 45 22.66C45 35.1012 34.9412 45.16 22.5 45.16ZM22.5 2.80706C11.5147 2.80706 2.64706 11.6747 2.64706 22.66C2.64706 33.6453 11.5147 42.5129 22.5 42.5129C33.4853 42.5129 42.3529 33.6453 42.3529 22.66C42.3529 11.6747 33.4853 2.80706 22.5 2.80706Z" fill="#FFBB01"/>
<path d="M33.4866 24.91L22.5013 13.9248L11.516 24.91L9.66309 23.0571L22.5013 10.2189L35.3396 23.0571L33.4866 24.91Z" fill="#FFBB01"/>
<path d="M21.1772 12.0718H23.8243V34.5718H21.1772V12.0718Z" fill="#FFBB01"/>
</svg>
