<?xml version="1.0" encoding="utf-8"?>
<!-- Generator: Adobe Illustrator 21.1.0, SVG Export Plug-In . SVG Version: 6.00 Build 0)  -->
<svg version="1.1" id="Слой_1" xmlns="http://www.w3.org/2000/svg" xmlns:xlink="http://www.w3.org/1999/xlink" x="0px" y="0px"
	 viewBox="0 0 80 80" style="enable-background:new 0 0 80 80;" xml:space="preserve">
<style type="text/css">
	.st0{fill:#FFFFFF;}
</style>
<g>
	<path class="st0" d="M34.1,0c1.6,0.3,3.2,0.5,4.8,0.8c12.5,2.7,22.5,13.2,24.4,26c1.4,9.2-0.8,17.5-6.4,24.9
		c-0.1,0.1-0.2,0.2-0.2,0.3c0,0,0,0.1-0.1,0.3c0.2,0.1,0.4,0.2,0.6,0.4c7.1,7.1,14.2,14.2,21.3,21.3c0.6,0.6,1,1.5,1.6,2.2
		c0,0.4,0,0.8,0,1.3c-0.4,1.3-1.2,2.1-2.5,2.5c-0.4,0-0.8,0-1.3,0c-0.7-0.5-1.6-0.9-2.2-1.6c-7.1-7.1-14.2-14.2-21.3-21.3
		c-0.2-0.2-0.3-0.5-0.5-0.7c0,0.1,0,0.2,0,0.3c-2.4,1.4-4.7,3-7.2,4.1C26.4,69.3,5.1,58.5,0.8,38.7c-0.3-1.5-0.5-3.1-0.8-4.7
		c0-1.5,0-2.9,0-4.4c0-0.2,0.1-0.4,0.1-0.6c0.3-1.8,0.5-3.7,1-5.4c3.6-12.2,11.6-19.9,24-22.9c1.5-0.4,3.1-0.5,4.6-0.8
		C31.1,0,32.6,0,34.1,0z M6.3,31.8c0,14.2,11.4,25.7,25.6,25.7c14.2,0,25.6-11.4,25.7-25.6c0-14.1-11.4-25.6-25.5-25.6
		C17.8,6.2,6.3,17.6,6.3,31.8z"/>
	<path class="st0" d="M35,28.7c4,0,7.8,0,11.7,0c0.4,0,0.8,0,1.2,0.1c1.6,0.3,2.6,1.8,2.5,3.3c-0.2,1.6-1.5,2.8-3.1,2.8
		c-3.7,0-7.5,0-11.2,0c-0.3,0-0.6,0-0.9,0c0,0.3,0,0.6,0,0.9c0,3.7,0,7.5,0,11.2c0,1.3-0.6,2.3-1.8,2.9c-1.2,0.6-2.3,0.4-3.3-0.4
		c-0.8-0.6-1.2-1.5-1.2-2.5c0-3.7,0-7.4,0-11.1c0-0.3,0-0.6,0-1c-0.3,0-0.6,0-0.9,0c-3.8,0-7.5,0-11.3,0c-1.6,0-3-1.2-3.1-2.8
		c-0.1-1.6,0.9-3,2.4-3.3c0.4-0.1,0.7-0.1,1.1-0.1c3.6,0,7.2,0,10.9,0c0.3,0,0.6,0,0.9,0c0-0.4,0-0.6,0-0.9c0-3.8,0-7.5,0-11.3
		c0-1.5,1.1-2.8,2.6-3c1.4-0.2,2.9,0.6,3.4,2c0.2,0.5,0.2,1,0.2,1.4c0,3.6,0,7.3,0,10.9C35,28.1,35,28.4,35,28.7z"/>
</g>
</svg>
